<?xml version="1.0" encoding="UTF-8" standalone="no"?>
<!-- Created with Inkscape (http://www.inkscape.org/) -->

<svg
   xmlns:dc="http://purl.org/dc/elements/1.1/"
   xmlns:cc="http://creativecommons.org/ns#"
   xmlns:rdf="http://www.w3.org/1999/02/22-rdf-syntax-ns#"
   xmlns:svg="http://www.w3.org/2000/svg"
   xmlns="http://www.w3.org/2000/svg"
   xmlns:sodipodi="http://sodipodi.sourceforge.net/DTD/sodipodi-0.dtd"
   xmlns:inkscape="http://www.inkscape.org/namespaces/inkscape"
   id="svg2426"
   sodipodi:version="0.32"
   inkscape:version="0.47 r22583"
   width="48"
   height="48"
   xml:space="preserve"
   sodipodi:docname="xfce4_xicon1.svg"
   inkscape:output_extension="org.inkscape.output.svg.inkscape"
   version="1.0"><metadata
     id="metadata2432"><rdf:RDF><cc:Work
         rdf:about=""><dc:format>image/svg+xml</dc:format><dc:type
           rdf:resource="http://purl.org/dc/dcmitype/StillImage" /><dc:title /></cc:Work></rdf:RDF></metadata><defs
     id="defs2430"><inkscape:perspective
       sodipodi:type="inkscape:persp3d"
       inkscape:vp_x="0 : 0.5 : 1"
       inkscape:vp_y="0 : 1000 : 0"
       inkscape:vp_z="1 : 0.5 : 1"
       inkscape:persp3d-origin="0.5 : 0.33333333 : 1"
       id="perspective2434" /><clipPath
       clipPathUnits="userSpaceOnUse"
       id="clipPath2444"><path
         d="M 0,1261.92 0,0 l 3930.52,0 0,1261.92 -3930.52,0 z"
         id="path2446" /></clipPath><inkscape:perspective
       id="perspective2986"
       inkscape:persp3d-origin="0.5 : 0.33333333 : 1"
       inkscape:vp_z="1 : 0.5 : 1"
       inkscape:vp_y="0 : 1000 : 0"
       inkscape:vp_x="0 : 0.5 : 1"
       sodipodi:type="inkscape:persp3d" /><inkscape:perspective
       id="perspective3026"
       inkscape:persp3d-origin="0.5 : 0.33333333 : 1"
       inkscape:vp_z="1 : 0.5 : 1"
       inkscape:vp_y="0 : 1000 : 0"
       inkscape:vp_x="0 : 0.5 : 1"
       sodipodi:type="inkscape:persp3d" /></defs><sodipodi:namedview
     pagecolor="#ffffff"
     bordercolor="#666666"
     borderopacity="1"
     objecttolerance="10"
     gridtolerance="10"
     guidetolerance="10"
     inkscape:pageopacity="0"
     inkscape:pageshadow="2"
     inkscape:window-width="1274"
     inkscape:window-height="724"
     id="namedview2428"
     showgrid="false"
     inkscape:zoom="7.6282828"
     inkscape:cx="38.944435"
     inkscape:cy="28.197876"
     inkscape:window-x="0"
     inkscape:window-y="25"
     inkscape:current-layer="g2436"
     inkscape:window-maximized="0" /><g
     id="g2436"
     inkscape:groupmode="layer"
     inkscape:label="ink_ext_XXXXXX"
     transform="matrix(1.25,0,0,-1.25,0,252.32)"><g
       style="fill-rule:evenodd"
       id="g3020"
       transform="matrix(0.00645901,0,0,-0.00645901,0.61177618,210.16533)"><path
         sodipodi:nodetypes="cccccccccccccccccccccccccccccccccc"
         class="fil3"
         d="m 2800.0946,4181.2824 0,-100.0034 77.7805,77.7804 77.7804,-77.7804 0,100.0034 100.0033,0 -77.7804,77.7804 77.7804,77.7804 -100.0033,0 0,100.0034 -77.7804,-77.7804 -77.7805,77.7804 0,-100.0034 -100.0033,0 77.7804,-77.7804 -77.7804,-77.7804 100.0033,0 z m -1511.1621,-1511.1622 944.4763,0 644.4663,-644.4662 644.4662,644.4662 944.4763,0 0,944.4764 644.4663,644.4662 -644.4663,644.4662 0,944.4764 -944.4763,0 -644.4662,644.4662 -644.4663,-644.4662 -944.4763,0 0,-944.4764 -644.46627,-644.4662 644.46627,-644.4662 0,-944.4764 z"
         id="path3022"
         style="fill:#ffffff;fill-opacity:1;fill-rule:evenodd" /><path
         sodipodi:nodetypes="cccccccccccccccccccccccccccc"
         class="fil2"
         d="m 3400.1149,2670.1202 -522.2398,-522.2399 -522.2399,522.2399 444.4594,0 0,1288.9325 77.7805,77.7804 77.7804,-77.7804 0,-1288.9325 444.4594,0 z m 644.4663,2533.419 333.3446,-333.3446 0,-444.4595 -1111.1487,0 777.8041,777.8041 z m -433.348,555.5743 766.6926,0 0,-766.6926 -333.3446,333.3446 -900.0305,-900.0304 -100.0033,0 0,100.0034 900.0304,900.0304 -333.3446,333.3446 z m -566.6858,-1111.1486 0,1111.1486 444.4594,0 333.3446,-333.3446 -777.804,-777.804 z"
         id="path3024"
         style="fill:#efa620" /><path
         class="fil0"
         d="m 4077.8667,5283.5967 1007,-1007 -1007,-1006 -1006,1006 1006,1007 z m -1192,-1192 1006,-1007 -1006,-1006 -1006,1006 1006,1007 z m 13,2371 1006,-1006 -1006,-1007 -1007,1007 1007,1006 z m -1192,-1192 1006,-1006 -1006,-1007 -1006.99999,1007 1006.99999,1006 z m -369,-878 0,1424 1423,0 0,-1424 -1423,0 z m 1686,0 0,1424 1423,0 0,-1424 -1423,0 z m -1686,-1668 0,1424 1423,0 0,-1424 -1423,0 z m 1686,0 0,1424 1423,0 0,-1424 -1423,0 z"
         id="path3026"
         style="fill:none" /><path
         sodipodi:nodetypes="cccccccccccccccccccccccccccc"
         class="fil1"
         d="m 1711.1689,3314.5864 -333.3446,333.3447 0,444.4594 1111.1487,0 -777.8041,-777.8041 z m 433.348,-555.5743 -766.6926,0 0,766.6926 333.3446,-333.3446 900.0305,900.0304 100.0034,0 0,-100.0034 -900.0305,-900.0304 333.3446,-333.3446 z m 566.6859,1111.1487 0,-1111.1487 -444.4595,0 -333.3446,333.3446 777.8041,777.8041 z m 688.9121,1977.8446 -522.2398,522.2399 -522.2399,-522.2399 444.4594,0 0,-1288.9324 77.7805,-77.7805 77.7804,77.7805 0,1288.9324 444.4594,0 z"
         id="path3028"
         style="fill:#9ccd29" /><path
         sodipodi:nodetypes="cccccccccccccccccccccccccccc"
         class="fil3"
         d="m 1288.9325,3736.8229 -522.23992,522.2399 522.23992,522.2399 0,-444.4595 1288.9324,0 77.7804,-77.7804 -77.7804,-77.7804 -1288.9324,0 0,-444.4595 z m 2755.6487,-422.2365 333.3446,333.3446 0,444.4595 -1111.1487,0 777.8041,-777.8041 z m -433.348,-555.5743 766.6926,0 0,766.6926 -333.3446,-333.3446 -900.0305,900.0304 -100.0033,0 0,-100.0034 900.0304,-900.0304 -333.3446,-333.3446 z m -566.6858,1111.1487 0,-1110.6689 444.4594,-0.4798 333.3446,333.3446 -777.804,777.8041 z"
         id="path3030"
         style="fill:#922297;fill-opacity:1" /><path
         sodipodi:nodetypes="cccccccccccccccccccccccccccc"
         class="fil4"
         d="m 4466.8176,3736.8229 522.2399,522.2399 -522.2399,522.2399 0,-444.4595 -1288.9324,0 -77.7804,-77.7804 77.7804,-77.7804 1288.9324,0 0,-444.4595 z m -1755.6148,911.142 0,1111.1486 -444.4595,0 -333.3446,-333.3446 777.8041,-777.804 z m -1000.0339,555.5743 -333.3446,-333.3446 0,-444.4595 1111.1487,0 -777.8041,777.8041 z m 433.348,555.5743 -766.6926,0 0,-766.6926 333.3446,333.3446 900.0305,-900.0304 100.0034,0 0,100.0034 -900.0305,900.0304 333.3446,333.3446 z"
         id="path3032"
         style="fill:#272377" /></g></g></svg>